<svg width="24" height="24" xmlns="http://www.w3.org/2000/svg">

 <g>
  <title>background</title>
  <rect fill="none" id="canvas_background" height="26" width="26" y="-1" x="-1"/>
 </g>
 <g>
  <title>Layer 1</title>
  <path id="svg_1" d="m9.725947,18.859624c1.73,-1.219 3.716,-2.861 5.859,-5.004c2.201,-2.201 3.819,-4.167 5.008,-5.853c-1.36,-2.475 -3.99,-4.153 -7.014,-4.153c-4.418,0 -8,3.582 -8,8c0,3.021 1.675,5.649 4.147,7.01z" fill="#B8D432"/>
  <path id="svg_2" d="m17.705947,16.202188c-1.43,1.429 -2.888,2.725 -4.318,3.863c0.064,0.002 0.127,0.01 0.191,0.01c4.418,0 8,-3.582 8,-8c0,-0.065 -0.008,-0.127 -0.01,-0.191c-1.17,1.467 -2.477,2.932 -3.863,4.318z" fill="#B8D432"/>
  <path id="svg_3" d="m24.995947,0.658188c-0.342,-0.342 -0.839,-0.504 -1.461,-0.504c-1.703,0 -4.348,1.225 -7.312,3.328c0.389,0.121 0.768,0.262 1.133,0.433c2.682,-1.821 4.904,-2.761 6.18,-2.761c0.247,0 0.579,0.037 0.754,0.211c0.947,0.947 -0.966,6.391 -7.997,13.422c-5.389,5.389 -10.452,8.208 -12.668,8.208c-0.248,0 -0.579,-0.037 -0.754,-0.211c-0.626,-0.626 0.011,-3.228 2.542,-6.949c-0.167,-0.36 -0.306,-0.734 -0.425,-1.118c-2.872,4.047 -4.1,7.497 -2.824,8.774c0.342,0.342 0.839,0.504 1.461,0.504c2.819,0 8.21,-3.337 13.375,-8.501c6.304,-6.305 9.884,-12.947 7.996,-14.836z" fill="#0078D7"/>
  <path id="svg_4" d="m5.578947,0.075188c0,2.209 -1.791,4 -4,4c2.209,0 4,1.791 4,4c0,-2.209 1.791,-4 4,-4c-2.209,0 -4,-1.791 -4,-4l0,0z" fill="#0078D7"/>
  <path id="svg_5" d="m22.578947,18c0,1.657 -1.343,3 -3,3c1.657,0 3,1.343 3,3c0,-1.657 1.343,-3 3,-3c-1.657,0 -3,-1.343 -3,-3l0,0z" fill="#0078D7"/>
  <path id="svg_6" d="m10.217947,13.194l-0.327,0c0.041,-0.163 0.061,-0.327 0.061,-0.51c0,-1.205 -0.98,-2.184 -2.184,-2.184l-2.043,0c-0.093,0.486 -0.146,0.987 -0.146,1.5c0,2.164 0.863,4.123 2.258,5.563l2.381,0c1.205,0 2.184,-0.98 2.184,-2.184c0,-1.205 -0.98,-2.185 -2.184,-2.185z" fill="#59B4D9"/>
  <path id="svg_7" d="m15.579947,14.086188c0.002,-0.002 0.003,-0.003 0.005,-0.005c0.296,-0.296 0.572,-0.584 0.847,-0.871c-0.373,0.188 -0.675,0.496 -0.852,0.876z" fill="#59B4D9"/>
  <path id="svg_8" d="m17.705947,16.127c-0.936,0.936 -1.885,1.815 -2.831,2.632c0.336,0.333 0.797,0.54 1.304,0.54l0.665,0c2.519,-1.129 4.346,-3.519 4.676,-6.37l-0.871,0c-0.923,1.088 -1.911,2.165 -2.943,3.198z" fill="#59B4D9"/>
  <path id="svg_9" d="m14.239947,11.222231l3.926,0c0.958,-1.107 1.759,-2.134 2.422,-3.073c-0.799,-1.452 -2.032,-2.633 -3.531,-3.358l-0.449,0c-0.817,0 -1.47,0.653 -1.47,1.47c0,0.122 0.02,0.265 0.061,0.388l-0.939,0c-1.286,0 -2.307,1.021 -2.307,2.286s1.021,2.287 2.287,2.287z" fill="#59B4D9"/>
  <g stroke="null" id="svg_28">
   <g stroke="null" transform="matrix(0.37415438872579515,0,0,0.4062493188820869,7.623914624734265,10.196731532374201) " id="svg_23">
    <path stroke="null" id="svg_24" d="m43.43528,4.800319c0.6,-0.6 0.5,-1.7 0,-2.3l-3.1,-3.1l-13.8,-13.4c-0.6,-0.6 -1.5,-0.6 -2.2,0l0,0c-0.6,0.6 -0.8,1.7 0,2.3l14.5,14.2c0.6,0.6 0.6,1.7 0,2.3l-14.8,14.7c-0.6,0.6 -0.6,1.7 0,2.3l0,0c0.6,0.6 1.7,0.5 2.2,0l13.7,-13.6c0,0 0,0 0.1,-0.1l3.4,-3.3z" fill="#3999C6"/>
    <path stroke="null" id="svg_25" d="m-19.76472,4.800319c-0.6,-0.6 -0.5,-1.7 0,-2.3l3.1,-3.1l13.8,-13.4c0.6,-0.6 1.5,-0.6 2.2,0l0,0c0.6,0.6 0.8,1.7 0,2.3l-14.2,14.2c-0.6,0.6 -0.6,1.7 0,2.3l14.5,14.7c0.6,0.6 0.6,1.7 0,2.3l0,0c-0.6,0.6 -1.7,0.5 -2.2,0l-14,-13.4c0,0 0,0 -0.1,-0.1l-3.1,-3.5z" fill="#3999C6"/>
    <polygon stroke="null" id="svg_26" points="27.435279846191406,-25.099685162305832 7.935279846191406,-25.099685162305832 -2.5647201538085938,4.500317603349686 10.235279083251953,4.600319415330887 0.23528003692626953,33.900318652391434 27.835281372070312,-5.199681729078293 14.435279846191406,-5.199681729078293 " fill="#FCD116"/>
    <polygon stroke="null" id="svg_27" points="14.435279846191406,-5.199681729078293 27.435279846191406,-25.099685162305832 17.23528289794922,-25.099685162305832 6.435279846191406,-0.49968087673187256 19.23528289794922,-0.3996805250644684 0.23528003692626953,33.900318652391434 27.835281372070312,-5.199681729078293 " fill="#FF8C00" opacity="0.3"/>
   </g>
  </g>
 </g>
</svg>